<svg width="34" height="38" viewBox="0 0 34 38" fill="none" xmlns="http://www.w3.org/2000/svg">
<path d="M16.7933 15.8074H2.09412C0.47746 15.8074 0.221524 15.5131 0.387882 13.9135C0.614801 11.8077 1.61083 9.85978 3.1851 8.44295C4.75936 7.02611 6.80112 6.24006 8.91907 6.23544C9.79282 6.26326 10.6482 5.98066 11.3334 5.43778C14.7459 2.82724 19.2759 2.968 22.6799 5.62546C23.1764 5.98419 23.7736 6.17678 24.3861 6.17572C26.6493 6.12347 28.8442 6.9531 30.507 8.48933C32.1698 10.0256 33.1702 12.148 33.2969 14.4083C33.3524 15.4918 33.0325 15.8074 31.821 15.8074C26.8104 15.8131 21.8012 15.8131 16.7933 15.8074ZM8.76124 8.236C8.63291 8.18103 8.49821 8.14234 8.36027 8.12083C5.91609 8.08244 2.815 10.71 2.41404 13.1073C2.3074 13.7642 2.61879 13.9306 3.17331 13.9306C4.5511 13.9306 5.93315 13.905 7.31094 13.9306C8.26216 13.9604 8.48824 13.5893 8.23657 12.7021C8.09101 12.1908 8.05325 11.6548 8.12566 11.1281C8.26643 10.1811 8.53516 9.22989 8.76124 8.236ZM25.2179 8.14216C25.2691 9.96357 25.2904 11.6698 25.3928 13.3675C25.3928 13.568 25.862 13.8922 26.1222 13.9007C27.5768 13.9519 29.0356 13.9306 30.4902 13.9306C31.2366 13.9306 31.3731 13.5851 31.1684 12.894C30.801 11.5835 30.0237 10.425 28.9503 9.5882C27.7772 8.69669 26.4976 8.05685 25.2179 8.14216ZM20.7134 6.86248C19.5191 5.01122 13.9738 5.04534 12.9756 6.86248L16.8445 10.5906L20.7134 6.86248ZM20.5257 13.9391V13.905C21.1596 13.9508 21.7964 13.9394 22.4282 13.8709C22.62 13.8248 22.7993 13.7371 22.9533 13.614C23.1074 13.4909 23.2325 13.3354 23.3197 13.1585C23.7519 11.8677 23.6553 10.4582 23.051 9.23842C22.7268 8.5218 22.2917 8.41943 21.6135 8.77774C20.181 9.51309 19.0442 10.7176 18.3929 12.1902C17.7147 13.696 17.8939 13.9348 19.5702 13.9434L20.5257 13.9391ZM13.0268 13.9391C13.6667 13.9391 14.3065 13.9391 14.9421 13.9391C15.5777 13.9391 15.8251 13.5723 15.5393 13.0305C15.0146 12.0366 14.5582 10.9404 13.7904 10.1598C13.0993 9.45596 11.8367 8.53033 11.1756 8.75214C10.1092 9.11045 10.075 10.5863 10.0836 11.7381C10.0836 13.6704 10.3864 13.9519 12.2803 13.9519L13.0268 13.9391Z" fill="white"/>
<path d="M16.8788 28.1313C12.3658 28.1313 7.84855 28.1313 3.33555 28.1313C2.56635 28.1474 1.81594 27.8927 1.21554 27.4116C0.615138 26.9305 0.202951 26.2536 0.0510464 25.4994C-0.0804163 24.7758 0.043885 24.0289 0.402648 23.3869C0.761412 22.7449 1.3323 22.2476 2.01748 21.9803C2.47742 21.7987 2.96921 21.7117 3.46352 21.7244C12.3843 21.7244 21.3065 21.7244 30.2301 21.7244C32.316 21.7244 33.6426 23.0424 33.681 24.9747C33.7236 26.7108 31.8724 28.1867 30.2301 28.1483C25.7896 28.0502 21.3449 28.1142 16.9001 28.1142L16.8788 28.1313ZM16.8404 26.1862C21.0662 26.1862 25.292 26.1862 29.5178 26.1862C31.0875 26.1862 31.7145 25.8023 31.6847 24.9065C31.6548 24.0107 31.0406 23.6268 29.4836 23.6268H4.02231C3.66827 23.6268 3.22038 23.5372 2.98151 23.7164C2.57628 24.0192 2.04734 24.5055 2.05161 24.9108C2.05587 25.316 2.6104 25.8023 3.03696 26.0923C3.2801 26.2629 3.72372 26.1648 4.07776 26.1648L16.8404 26.1862Z" fill="white"/>
<path d="M16.93 29.9266H31.1088C32.7169 29.9266 33.135 30.511 32.6487 32.0594C32.1222 33.7023 31.103 35.1435 29.7295 36.1874C28.356 37.2313 26.6945 37.8274 24.9706 37.8948C19.2547 38.0426 13.536 38.0327 7.81442 37.8649C4.40194 37.771 1.63784 35.1093 0.891362 31.7438C0.597036 30.4129 1.00227 29.9224 2.42697 29.9224L16.93 29.9266ZM30.5799 32.0296C30.1662 31.9588 29.749 31.9104 29.3301 31.8845C20.9837 31.8845 12.6374 31.8845 4.29104 31.8845C3.92174 31.9261 3.55829 32.009 3.20758 32.1319C3.29032 32.499 3.41483 32.8554 3.57868 33.1941C4.85836 35.2629 6.90585 36.0264 9.20927 36.0563C14.0763 36.116 18.9433 36.0861 23.8061 36.0563C24.5528 36.0489 25.295 35.9384 26.0114 35.7278C27.9736 35.1434 29.6116 34.1453 30.5841 32.0296H30.5799Z" fill="white"/>
<path d="M16.9683 17.8475H30.9338C31.3623 17.7999 31.7958 17.8303 32.2135 17.9371C32.5163 18.0565 32.9173 18.4617 32.9002 18.7134C32.862 18.9052 32.7832 19.0866 32.6692 19.2455C32.5552 19.4044 32.4085 19.5371 32.2391 19.6348C31.8704 19.7603 31.4775 19.7983 31.0916 19.7457H2.41407H2.09415C1.41592 19.7457 0.729156 19.6518 0.750484 18.7646C0.750484 17.9413 1.42871 17.8688 2.06002 17.8688H14.9592L16.9683 17.8475Z" fill="white"/>
<path d="M16.6142 0.00809159C16.8014 -0.0119525 16.9908 0.00533235 17.1714 0.0589463C17.3519 0.11256 17.52 0.201439 17.666 0.320442C17.812 0.439445 17.9329 0.58621 18.0218 0.752249C18.1107 0.918287 18.1658 1.1003 18.1839 1.28777C18.1806 1.64536 18.037 1.98736 17.7842 2.24022C17.5313 2.49309 17.1893 2.63662 16.8317 2.63996C16.662 2.65703 16.4906 2.63769 16.329 2.58324C16.1674 2.52878 16.0193 2.44046 15.8945 2.32418C15.7697 2.2079 15.6712 2.06633 15.6055 1.90894C15.5399 1.75154 15.5085 1.58194 15.5136 1.41147C15.4795 0.592478 15.9018 0.076341 16.6142 0.00809159Z" fill="white"/>
</svg>
