<svg width="323" height="163" viewBox="0 0 323 163" fill="none" xmlns="http://www.w3.org/2000/svg">
<path d="M264.054 118.863C264.339 118.409 264.524 117.787 264.894 117.544C265.725 117.124 266.587 116.77 267.473 116.485C267.709 117.325 268.314 118.359 268.104 119.006C266.524 123.341 264.743 127.601 263.062 131.886C261.592 135.558 260.113 139.221 258.458 143.338C259.042 143.214 259.607 143.013 260.138 142.742C263.146 140.221 266.171 137.751 269.078 135.18C269.656 134.496 270.047 133.674 270.212 132.794C272.17 125.996 276.144 120.837 282.488 117.603C283.305 117.212 284.169 116.929 285.059 116.762C289.21 115.922 291.966 118.771 290.94 122.871C290.052 126.39 288.129 129.563 285.42 131.978C282.71 134.394 279.339 135.942 275.741 136.423C273.439 136.726 273.145 137.129 273.607 139.381C274.397 143.204 277.111 144.607 280.64 142.893C285.126 140.717 288.311 137.011 291.1 133.096C293.621 129.567 295.763 125.795 297.939 122.047C298.255 121.175 298.319 120.232 298.124 119.325C298.049 118.485 297.402 117.645 297.528 116.914C297.763 115.628 298.074 113.981 298.964 113.309C299.524 113.014 300.147 112.86 300.779 112.86C301.412 112.86 302.035 113.014 302.594 113.309C303.544 113.956 304.594 115.83 304.275 116.72C303.292 119.51 304.275 121.165 305.955 123.324C308.476 126.467 307.215 130.046 305.728 133.449C304.613 136.064 303.656 138.743 302.863 141.473C302.645 142.204 303.149 143.153 303.325 143.994C304.165 143.624 305.291 143.481 305.846 142.843C308.366 139.784 310.769 136.6 313.172 133.432C313.803 132.592 314.181 131.525 314.928 130.836C315.433 130.365 316.701 129.996 317.054 130.265C317.609 130.71 318.146 132.021 317.894 132.508C314.735 138.121 311.542 143.792 305.888 147.346C302.93 149.203 300.141 147.892 299.359 144.473C298.469 140.557 299.855 137.028 301.502 133.55C302.195 132.259 302.798 130.923 303.308 129.55C303.647 128.561 303.71 127.498 303.493 126.475C303.266 125.635 302.409 124.938 301.813 124.173C301.121 124.654 300.504 125.235 299.981 125.895C296.469 132.054 292.789 138.112 287.26 142.7C285.292 144.365 283.078 145.716 280.698 146.708C276.38 148.438 272.666 146.64 270.759 142.355C270.456 141.675 270.128 140.994 269.692 140.078C268.994 140.599 268.473 141.019 267.919 141.397C264.415 143.826 260.869 146.178 257.433 148.699C256.447 149.419 255.66 150.379 255.148 151.488C253.677 154.849 251.896 158.025 248.955 160.319C247.908 161.127 246.711 161.721 245.435 162.067C244.41 162.346 243.324 162.303 242.324 161.943C241.325 161.584 240.46 160.926 239.847 160.058C238.427 158.319 238.612 156.429 239.545 154.538C240.662 152.261 242.637 150.993 244.905 150.077C247.174 149.161 249.476 148.321 251.703 147.304C252.439 146.87 253.025 146.223 253.383 145.447C245.67 147.59 244.351 147.178 242.04 141.498C241.427 142.044 240.923 142.548 240.36 142.985C238.679 144.321 237.108 145.893 235.235 146.884C232.647 148.253 230.109 146.792 229.639 143.868C229.042 140.162 230.235 136.843 232.017 133.651C232.934 132.09 233.683 130.437 234.251 128.719C234.882 126.643 234.025 125.131 231.806 123.997C230.815 125.618 229.891 127.357 228.799 128.912C225.362 133.953 221.934 138.927 218.346 143.826C217.416 144.966 216.246 145.887 214.918 146.523C212.129 147.985 209.591 146.75 208.751 143.725C208.591 143.153 208.423 142.574 208.18 141.691C207.516 142.238 207.121 142.582 206.701 142.893C205.374 144.114 203.949 145.224 202.441 146.212C201.647 146.674 200.747 146.926 199.828 146.942C198.909 146.957 198.001 146.737 197.191 146.303C196.381 145.868 195.696 145.233 195.202 144.458C194.707 143.683 194.42 142.794 194.367 141.876C194.217 140.21 194.441 138.53 195.022 136.961C197.375 130.828 199.929 124.761 202.408 118.678C202.643 118.098 202.786 117.325 203.248 116.998C203.869 116.518 204.651 116.295 205.432 116.376C205.894 116.494 206.272 117.502 206.407 118.166C206.398 118.724 206.244 119.271 205.962 119.754C203.441 125.98 200.92 132.189 198.4 138.423C198.098 139.125 197.927 139.877 197.896 140.641C197.896 142.817 199.299 143.7 201.214 142.691C204.802 140.809 206.903 137.474 208.667 134.096C211.188 129.214 213.305 124.081 215.582 119.056C215.784 118.611 215.968 118.157 216.145 117.703C216.59 116.536 217.573 115.838 218.573 116.494C218.925 116.814 219.192 117.216 219.35 117.665C219.508 118.114 219.553 118.594 219.481 119.065C218.472 122.257 217.128 125.341 215.994 128.5C214.725 132.037 213.414 135.583 212.406 139.196C212.07 140.398 212.616 141.851 212.759 143.187C213.885 142.473 215.364 142.002 216.12 140.994C219.691 136.003 223.077 130.912 226.513 125.778C226.984 125.08 227.303 124.282 227.799 123.619C229.059 121.938 229.479 120.258 228.53 118.182C227.782 116.544 227.757 114.485 229.496 113.452C230.719 112.904 232.102 112.829 233.378 113.242C235.058 113.746 235.781 116.309 234.772 118.544C234.058 120.132 234.52 120.879 235.655 121.904C238.679 124.593 239.083 128.45 236.999 132.659C235.797 135.096 234.478 137.507 233.554 140.036C233.193 140.994 233.63 142.254 233.697 143.397C234.638 142.885 235.881 142.607 236.461 141.826C239.713 137.474 242.855 133.046 245.93 128.567C247.611 126.106 248.854 123.282 250.753 121.005C254.996 115.821 258.492 115.376 264.054 118.863ZM260.92 124.366C260.987 120.518 259.172 119.325 256.593 120.821C255.313 121.55 254.174 122.503 253.232 123.635C250.101 127.599 247.845 132.181 246.611 137.079C246.271 138.215 246.074 139.389 246.023 140.574C245.972 142.817 247.208 143.649 249.274 142.901C249.878 142.719 250.447 142.435 250.955 142.061C256.272 137.533 259.805 131.261 260.92 124.366ZM274.245 132.441C274.723 132.551 275.21 132.613 275.699 132.626C278.299 132.251 280.739 131.146 282.736 129.44C284.733 127.735 286.206 125.497 286.983 122.988C287.086 122.202 287.086 121.405 286.983 120.619C286.139 120.537 285.288 120.594 284.462 120.787C280.261 122.602 277.413 125.895 275.279 129.844C274.883 130.686 274.538 131.55 274.245 132.432V132.441ZM250.257 152.488C247.67 153.085 245.073 153.58 243.301 155.715C242.914 156.185 242.696 157.395 242.99 157.706C243.271 157.977 243.613 158.177 243.987 158.29C244.361 158.402 244.756 158.424 245.141 158.353C246.368 157.801 247.461 156.991 248.346 155.977C249.23 154.963 249.885 153.77 250.266 152.48L250.257 152.488Z" fill="white"/>
<path d="M105.708 142.431C103.868 143.682 102.641 144.674 101.28 145.413C99.8997 146.23 98.4199 146.866 96.8771 147.304C92.8861 148.278 89.1724 146.035 87.8532 142.044C87.534 141.069 87.2231 140.086 86.8282 138.86C85.2682 140.452 83.6127 141.947 81.8709 143.338C79.8086 144.882 77.5689 146.174 75.1997 147.186C71.6456 148.581 67.8226 146.749 66.075 143.212C65.6129 142.279 65.2852 141.288 64.7727 140.019L62.9662 141.397C60.706 143.136 58.6055 145.178 56.1353 146.548C52.8501 148.379 50.6067 146.976 50.1194 143.254C50.069 142.851 49.9849 142.414 49.8757 141.767L48.523 142.851C47.3861 143.876 46.191 144.836 44.9437 145.724C42.6919 147.161 40.3309 147.346 38.096 145.64C37.0805 144.764 36.3551 143.599 36.0161 142.302C35.677 141.004 35.7401 139.634 36.1971 138.372C38.9782 131.432 41.9021 124.542 44.7672 117.636C45.2546 116.46 46.0108 115.687 47.3551 116.275C48.6994 116.863 48.523 118.039 48.0693 119.132C45.5486 125.273 42.9776 131.407 40.4402 137.541C39.7176 139.297 38.6757 141.338 40.6418 142.691C42.6079 144.044 44.0783 142.111 45.263 140.91C49.9177 136.188 52.6988 130.315 55.043 124.206C55.8832 122.055 56.7907 119.938 57.7065 117.812C58.1938 116.678 58.992 115.846 60.3195 116.392C61.6471 116.939 61.5294 118.073 61.1093 119.232C58.992 125.005 56.8495 130.768 54.8162 136.566C54.3166 138.186 53.9513 139.844 53.7239 141.523C53.7157 142.055 53.7894 142.585 53.9423 143.094C54.4549 143.01 55.1438 143.094 55.4631 142.809C58.5551 139.986 61.6975 137.204 64.5794 134.18C65.4196 133.264 65.5288 131.6 66.033 130.306C68.4444 124.106 72.3261 119.291 78.779 116.947C80.8711 116.191 82.98 116.107 84.6604 117.787C86.3409 119.468 86.2736 121.501 85.5511 123.669C83.1312 130.777 78.4009 135.188 70.8642 136.373C68.4108 136.759 68.2175 137.036 68.6964 139.49C69.5366 143.691 72.427 145.245 76.0987 142.783C79.441 140.392 82.5195 137.651 85.2822 134.608C86.7778 133.054 87.7272 130.92 88.7271 128.945C91.0796 124.282 94.0876 120.266 98.8768 117.854C99.619 117.467 100.395 117.15 101.196 116.905C103.212 116.325 105.212 116.14 106.892 117.787C108.573 119.434 108.464 121.577 107.842 123.492C105.842 129.659 101.91 134.028 95.4907 135.835C95.0202 135.969 94.5413 136.087 94.0624 136.179C90.5419 136.868 90.4747 136.936 90.9116 139.154C91.6426 142.867 93.2558 144.304 96.1461 143.632C97.3078 143.388 98.41 142.917 99.3893 142.246C104.75 138.314 109.472 133.844 111.547 127.214C112.433 124.415 113.479 121.668 114.681 118.989C115.11 118.006 115.967 116.762 116.832 116.577C117.504 116.426 118.513 117.728 119.664 118.627C119.924 118.459 120.588 117.989 121.285 117.577C123.537 116.258 125.839 115.687 128.167 117.367C129.216 118.206 129.977 119.352 130.343 120.644C130.709 121.937 130.662 123.312 130.208 124.576C128.385 129.71 126.402 134.793 124.486 139.902C124.335 140.296 124.041 140.742 124.075 141.078C124.167 141.994 124.176 143.111 124.705 143.716C124.982 144.035 126.553 143.716 127.083 143.254C129.242 141.195 131.284 139.003 133.25 136.742C134.223 135.463 135.129 134.133 135.964 132.76C136.627 131.81 137.644 131.079 138.56 132.012C138.839 132.393 139.02 132.837 139.088 133.304C139.155 133.771 139.107 134.248 138.946 134.692C137.729 136.895 136.309 138.98 134.703 140.918C133.099 142.851 131.3 144.614 129.334 146.178C126.873 148.11 124.15 148.203 122.335 146.85C120.361 145.38 119.613 142.792 120.655 139.801C122.335 135.054 124.209 130.39 125.99 125.677C126.334 124.99 126.539 124.242 126.595 123.475C126.545 122.442 126.469 120.955 125.831 120.526C125.192 120.098 123.621 120.526 122.823 121.039C119.017 123.652 116.656 127.5 114.715 131.55C112.606 135.953 110.799 140.515 108.791 144.993C108.456 145.81 107.867 146.496 107.111 146.951C105.968 147.497 104.708 146.287 104.935 145.018C105.078 144.321 105.33 143.691 105.708 142.431ZM91.6174 132.23C92.1299 132.474 92.2559 132.583 92.3736 132.583C98.0198 132.373 102.918 127.845 104.456 122.013C104.825 120.627 103.868 119.804 102.675 120.383C100.405 121.39 98.2829 122.698 96.3646 124.274C94.0025 126.375 92.345 129.154 91.6174 132.23ZM82.1902 122.055C82.1902 120.022 81.1147 120.081 79.93 120.442C75.897 121.694 73.2504 124.643 71.1667 128.08C70.3937 129.357 70.1416 130.953 69.6459 132.407C71.2423 132.121 73.0067 132.13 74.4015 131.483C76.3526 130.639 78.0758 129.345 79.4298 127.706C80.7837 126.067 81.7297 124.131 82.1902 122.055Z" fill="white"/>
<path d="M177.344 119.645C181.948 120.283 185.931 120.283 189.258 117.612C193.611 114.116 193.039 107.68 188.309 104.563C183.578 101.446 175.983 101.748 170.984 105.109C166.438 108.159 164.338 113.78 165.506 119.737C165.657 120.493 165.808 121.25 165.968 121.997C166.237 123.3 165.774 124.426 164.489 124.518C164.048 124.424 163.638 124.221 163.296 123.927C162.954 123.634 162.691 123.259 162.531 122.838C159.809 113.175 162.985 103.42 173.362 99.8663C178.84 97.9842 184.284 98.1859 189.418 100.95C193.703 103.278 196.14 106.924 195.862 111.873C195.585 117.032 192.821 120.603 187.998 122.518C186.981 122.881 186.028 123.403 185.175 124.064C185.966 124.482 186.717 124.971 187.418 125.526C192.258 130.097 193.3 136.273 190.3 142.188C188.926 144.811 186.734 146.916 184.057 148.182C181.379 149.448 178.362 149.806 175.462 149.203C172.282 148.542 169.404 146.864 167.262 144.423C166.06 143.146 165.178 143.146 164.035 144.473C163.234 145.353 162.319 146.122 161.313 146.758C156.801 149.766 152.549 148.859 149.617 144.33C147.004 140.289 148.836 135.878 153.558 134.836C156.74 134.19 160.049 134.792 162.8 136.516C164.388 137.432 165.321 137.247 166.052 135.592C168.522 130.114 170.908 124.594 173.614 119.216C175.385 115.749 177.349 112.383 179.495 109.134C180.083 108.218 181.293 107.638 182.301 107.05C183.31 106.462 184.528 106.546 185.116 107.823C185.704 109.1 184.948 109.747 183.931 110.344C180.444 112.394 179.369 116.066 177.344 119.645ZM177.479 145.843C181.94 145.843 185.595 143.591 187.082 140.356C188.763 136.659 188.763 133.055 186.2 129.677C184.041 126.812 180.965 125.367 177.798 124.048C176.269 123.417 175.613 123.879 174.958 125.35C172.95 129.795 170.757 134.147 168.656 138.566C168.506 138.857 168.421 139.176 168.406 139.502C168.392 139.829 168.448 140.155 168.572 140.457C171.101 143.44 174.067 145.809 177.487 145.843H177.479ZM156.171 137.987C153.793 138.281 152.247 139.188 152.155 140.6C152.003 142.944 155.431 145.574 157.591 144.574C159.054 143.795 160.41 142.829 161.624 141.7C162.464 140.978 162.254 140.18 161.22 139.785C159.59 139.146 157.86 138.583 156.179 137.987H156.171Z" fill="white"/>
<path d="M161.472 39.1357H132.519C129.334 39.1357 128.83 38.5559 129.158 35.4051C129.605 31.2573 131.567 27.4204 134.668 24.6296C137.769 21.8388 141.79 20.2904 145.962 20.2814C147.683 20.3361 149.368 19.7795 150.718 18.7102C157.439 13.5681 166.362 13.8453 173.067 19.0799C174.034 19.7857 175.198 20.1707 176.395 20.1805C180.853 20.0776 185.176 21.7118 188.451 24.7377C191.726 27.7637 193.697 31.9444 193.947 36.3966C194.056 38.5307 193.426 39.1525 191.039 39.1525C181.187 39.1469 171.331 39.1413 161.472 39.1357ZM145.651 24.2219C145.399 24.1136 145.133 24.0374 144.862 23.9951C140.047 23.9195 133.939 29.0952 133.149 33.8171C132.939 35.1111 133.552 35.4387 134.645 35.4387C137.358 35.4387 140.081 35.3883 142.795 35.4387C144.668 35.4976 145.114 34.7666 144.618 33.0189C144.331 32.0118 144.257 30.956 144.399 29.9186C144.677 28.0533 145.206 26.1796 145.651 24.2219ZM178.025 24.0371C178.125 27.6248 178.167 30.9856 178.369 34.3297C178.369 34.7246 179.293 35.3631 179.806 35.3799C182.671 35.4808 185.545 35.4387 188.41 35.4387C189.88 35.4387 190.149 34.7582 189.746 33.397C189.022 30.8156 187.491 28.5337 185.376 26.8854C183.116 25.121 180.596 23.8691 178.025 24.0371ZM169.152 21.5165C166.799 17.8699 155.877 17.9372 153.911 21.5165L161.531 28.8599L169.152 21.5165ZM168.833 35.4556V35.3883C170.081 35.4787 171.336 35.4562 172.58 35.3211C172.958 35.2304 173.311 35.0577 173.614 34.8152C173.918 34.5727 174.164 34.2664 174.336 33.918C175.187 31.3754 174.997 28.5991 173.807 26.1964C173.168 24.7849 172.311 24.5832 170.975 25.289C168.154 26.7375 165.915 29.1101 164.632 32.0107C163.296 34.9766 163.649 35.4472 166.951 35.464L168.833 35.4556ZM154.062 35.4556C155.322 35.4556 156.582 35.4556 157.834 35.4556C159.086 35.4556 159.574 34.733 159.011 33.6659C157.977 31.7082 157.078 29.5489 155.566 28.0113C154.205 26.6249 151.718 24.8017 150.415 25.2386C148.315 25.9444 148.248 28.8515 148.264 31.1201C148.264 34.9262 148.861 35.4808 152.591 35.4808L154.062 35.4556Z" fill="white"/>
<path d="M45.3218 161.252C40.0369 161.378 34.399 159.009 29.467 154.866C26.896 152.707 24.3333 150.531 21.8631 148.262C20.5272 147.036 19.4853 146.859 17.8637 147.951C14.9986 149.892 11.8394 151.245 8.22649 150.892C4.93286 150.573 2.2862 149.212 0.992273 146.011C0.454612 144.854 0.283171 143.56 0.500905 142.304C0.718638 141.047 1.31515 139.886 2.21058 138.978C3.25728 137.771 4.65928 136.927 6.2155 136.566C7.77173 136.205 9.40223 136.347 10.8731 136.97C13.4994 138.1 16.0285 139.443 18.435 140.986C19.4349 141.574 20.0398 141.725 20.9557 140.776C27.3161 134.054 31.7776 126.383 33.5588 117.25C33.8672 115.742 33.9773 114.2 33.8865 112.663C33.374 105.294 27.2068 101.513 20.2835 104.261C15.622 106.169 11.7633 109.63 9.36077 114.057C7.18978 117.877 5.44297 121.923 4.15146 126.123C3.47089 128.307 4.26909 130.929 4.21028 133.349C4.21028 134.189 3.58012 134.953 3.23564 135.76C2.44584 135.365 1.29475 135.172 0.950263 134.533C0.397494 133.403 0.0883409 132.169 0.042836 130.912C-0.721756 120.09 8.87345 104.807 18.8804 100.832C27.6269 97.354 37.8271 102.269 37.5918 113.436C37.3642 119.969 35.3914 126.323 31.8784 131.836C29.4722 135.598 26.8462 139.214 24.014 142.667C23.0562 143.885 22.9302 144.532 24.1905 145.54C27.2909 148.061 30.1644 150.85 33.374 153.211C41.6249 159.269 50.3882 158.589 59.2357 154.656C61.0757 153.816 62.7813 152.707 64.5542 151.724C65.6129 151.136 66.7219 150.371 67.6546 151.8C68.5872 153.228 67.6546 154.085 66.6127 154.766C60.5212 158.656 53.9675 161.294 45.3218 161.252ZM16.5782 144.381C13.8223 142.104 11.2344 140.423 8.00803 140.121C7.12634 140.076 6.25702 140.343 5.55205 140.874C4.84709 141.406 4.35134 142.168 4.15146 143.028C4.06545 143.868 4.28477 144.71 4.76926 145.401C5.25376 146.093 5.97102 146.586 6.78973 146.792C10.3522 147.893 13.3014 146.506 16.5782 144.381Z" fill="white"/>
<path d="M161.641 63.4088C152.751 63.4088 143.853 63.4088 134.964 63.4088C133.443 63.451 131.956 62.9549 130.764 62.0081C129.573 61.0613 128.754 59.7244 128.452 58.2331C128.185 56.8026 128.426 55.3237 129.133 54.0519C129.84 52.7801 130.969 51.7953 132.326 51.2677C133.232 50.9101 134.2 50.7387 135.174 50.7636C152.746 50.7636 170.32 50.7636 187.897 50.7636C192.006 50.7636 194.619 53.3599 194.694 57.166C194.778 60.5857 191.132 63.4928 187.897 63.4172C179.151 63.2239 170.396 63.35 161.641 63.35V63.4088ZM161.565 59.5438C169.889 59.5438 178.212 59.5438 186.536 59.5438C189.628 59.5438 190.863 58.7876 190.804 57.0232C190.745 55.2587 189.536 54.5025 186.469 54.5025H136.317C135.619 54.5025 134.737 54.3261 134.267 54.679C133.468 55.2755 132.426 56.2334 132.435 57.0316C132.443 57.8298 133.519 58.712 134.334 59.317C134.813 59.653 135.686 59.4598 136.384 59.4598L161.565 59.5438Z" fill="white"/>
<path d="M161.741 66.9464H189.67C192.837 66.9464 193.661 68.0975 192.703 71.1474C191.666 74.3836 189.659 77.2223 186.953 79.2785C184.247 81.3347 180.975 82.5088 177.579 82.6415C166.32 82.9328 155.056 82.9132 143.786 82.5827C137.064 82.3979 131.62 77.1549 130.149 70.5257C129.57 67.9042 130.368 66.938 133.174 66.938L161.741 66.9464ZM188.628 71.0886C187.813 70.9492 186.991 70.8539 186.166 70.803C169.726 70.803 153.286 70.803 136.846 70.803C136.118 70.8847 135.403 71.0482 134.712 71.2903C134.875 72.0133 135.12 72.7152 135.443 73.3824C137.963 77.4574 141.996 78.9614 146.533 79.0202C156.12 79.1378 165.707 79.079 175.285 79.0202C176.756 79.0057 178.218 78.788 179.629 78.3733C183.486 77.2642 186.721 75.2561 188.628 71.0886Z" fill="white"/>
<path d="M161.817 43.1519H189.325C190.169 43.0582 191.023 43.118 191.846 43.3283C192.443 43.5636 193.232 44.3618 193.199 44.8575C193.123 45.2353 192.968 45.5926 192.744 45.9056C192.519 46.2186 192.23 46.48 191.896 46.6723C191.17 46.9196 190.396 46.9944 189.636 46.8908H133.149H132.519C131.183 46.8908 129.83 46.7059 129.872 44.9583C129.872 43.3367 131.208 43.1939 132.451 43.1939H157.859L161.817 43.1519Z" fill="white"/>
<path d="M319.609 147.892C319.175 147.881 318.748 147.784 318.352 147.607C317.955 147.431 317.598 147.178 317.299 146.863C316.697 146.227 316.371 145.378 316.395 144.502C316.418 143.626 316.788 142.796 317.424 142.193C318.06 141.59 318.909 141.265 319.785 141.288C320.661 141.312 321.491 141.682 322.094 142.318C322.697 142.954 323.022 143.803 322.999 144.679C322.975 145.554 322.605 146.385 321.969 146.988C321.333 147.59 320.484 147.916 319.609 147.892Z" fill="white"/>
<circle cx="161" cy="3.24854" r="3" fill="white"/>
</svg>
