<svg width="323" height="159" viewBox="0 0 323 159" fill="none" xmlns="http://www.w3.org/2000/svg">
<path d="M264.054 103.863C264.339 103.409 264.524 102.787 264.894 102.544C265.725 102.124 266.587 101.77 267.473 101.485C267.709 102.325 268.314 103.359 268.104 104.006C266.524 108.341 264.743 112.601 263.062 116.886C261.592 120.558 260.113 124.221 258.458 128.338C259.042 128.214 259.607 128.013 260.138 127.742C263.146 125.221 266.171 122.751 269.078 120.18C269.656 119.496 270.047 118.674 270.212 117.794C272.17 110.996 276.144 105.837 282.488 102.603C283.305 102.212 284.169 101.929 285.059 101.762C289.21 100.922 291.966 103.771 290.94 107.871C290.052 111.39 288.129 114.563 285.42 116.978C282.71 119.394 279.339 120.942 275.741 121.423C273.439 121.726 273.145 122.129 273.607 124.381C274.397 128.204 277.111 129.607 280.64 127.893C285.126 125.717 288.311 122.011 291.1 118.096C293.621 114.567 295.763 110.795 297.939 107.047C298.255 106.175 298.319 105.232 298.124 104.325C298.049 103.485 297.402 102.645 297.528 101.914C297.763 100.628 298.074 98.9813 298.964 98.3091C299.524 98.0141 300.147 97.8599 300.779 97.8599C301.412 97.8599 302.035 98.0141 302.594 98.3091C303.544 98.9561 304.594 100.83 304.275 101.72C303.292 104.51 304.275 106.165 305.955 108.324C308.476 111.467 307.215 115.046 305.728 118.449C304.613 121.064 303.656 123.743 302.863 126.473C302.645 127.204 303.149 128.153 303.325 128.994C304.165 128.624 305.291 128.481 305.846 127.843C308.366 124.784 310.769 121.6 313.172 118.432C313.803 117.592 314.181 116.525 314.928 115.836C315.433 115.365 316.701 114.996 317.054 115.265C317.609 115.71 318.146 117.021 317.894 117.508C314.735 123.121 311.542 128.792 305.888 132.346C302.93 134.203 300.141 132.892 299.359 129.473C298.469 125.557 299.855 122.028 301.502 118.55C302.195 117.259 302.798 115.923 303.308 114.55C303.647 113.561 303.71 112.498 303.493 111.475C303.266 110.635 302.409 109.938 301.813 109.173C301.121 109.654 300.504 110.235 299.981 110.895C296.469 117.054 292.789 123.112 287.26 127.7C285.292 129.365 283.078 130.716 280.698 131.708C276.38 133.438 272.666 131.64 270.759 127.355C270.456 126.675 270.128 125.994 269.692 125.078C268.994 125.599 268.473 126.019 267.919 126.397C264.415 128.826 260.869 131.178 257.433 133.699C256.447 134.419 255.66 135.379 255.148 136.488C253.677 139.849 251.896 143.025 248.955 145.319C247.908 146.127 246.711 146.721 245.435 147.067C244.41 147.346 243.324 147.303 242.324 146.943C241.325 146.584 240.46 145.926 239.847 145.058C238.427 143.319 238.612 141.429 239.545 139.538C240.662 137.261 242.637 135.993 244.905 135.077C247.174 134.161 249.476 133.321 251.703 132.304C252.439 131.87 253.025 131.223 253.383 130.447C245.67 132.59 244.351 132.178 242.04 126.498C241.427 127.044 240.923 127.548 240.36 127.985C238.679 129.321 237.108 130.893 235.235 131.884C232.647 133.253 230.109 131.792 229.639 128.868C229.042 125.162 230.235 121.843 232.017 118.651C232.934 117.09 233.683 115.437 234.251 113.719C234.882 111.643 234.025 110.131 231.806 108.997C230.815 110.618 229.891 112.357 228.799 113.912C225.362 118.953 221.934 123.927 218.346 128.826C217.416 129.966 216.246 130.887 214.918 131.523C212.129 132.985 209.591 131.75 208.751 128.725C208.591 128.153 208.423 127.574 208.18 126.691C207.516 127.238 207.121 127.582 206.701 127.893C205.374 129.114 203.949 130.224 202.441 131.212C201.647 131.674 200.747 131.926 199.828 131.942C198.909 131.957 198.001 131.737 197.191 131.303C196.381 130.868 195.696 130.233 195.202 129.458C194.707 128.683 194.42 127.794 194.367 126.876C194.217 125.21 194.441 123.53 195.022 121.961C197.375 115.828 199.929 109.761 202.408 103.678C202.643 103.098 202.786 102.325 203.248 101.998C203.869 101.518 204.651 101.295 205.432 101.376C205.894 101.494 206.272 102.502 206.407 103.166C206.398 103.724 206.244 104.271 205.962 104.754C203.441 110.98 200.92 117.189 198.4 123.423C198.098 124.125 197.927 124.877 197.896 125.641C197.896 127.817 199.299 128.7 201.214 127.691C204.802 125.809 206.903 122.474 208.667 119.096C211.188 114.214 213.305 109.081 215.582 104.056C215.784 103.611 215.968 103.157 216.145 102.703C216.59 101.536 217.573 100.838 218.573 101.494C218.925 101.814 219.192 102.216 219.35 102.665C219.508 103.114 219.553 103.594 219.481 104.065C218.472 107.257 217.128 110.341 215.994 113.5C214.725 117.037 213.414 120.583 212.406 124.196C212.07 125.398 212.616 126.851 212.759 128.187C213.885 127.473 215.364 127.002 216.12 125.994C219.691 121.003 223.077 115.912 226.513 110.778C226.984 110.08 227.303 109.282 227.799 108.619C229.059 106.938 229.479 105.258 228.53 103.182C227.782 101.544 227.757 99.4854 229.496 98.452C230.719 97.9043 232.102 97.8295 233.378 98.2419C235.058 98.746 235.781 101.309 234.772 103.544C234.058 105.132 234.52 105.879 235.655 106.904C238.679 109.593 239.083 113.45 236.999 117.659C235.797 120.096 234.478 122.507 233.554 125.036C233.193 125.994 233.63 127.254 233.697 128.397C234.638 127.885 235.881 127.607 236.461 126.826C239.713 122.474 242.855 118.046 245.93 113.567C247.611 111.106 248.854 108.282 250.753 106.005C254.996 100.821 258.492 100.376 264.054 103.863ZM260.92 109.366C260.987 105.518 259.172 104.325 256.593 105.821C255.313 106.55 254.174 107.503 253.232 108.635C250.101 112.599 247.845 117.181 246.611 122.079C246.271 123.215 246.074 124.389 246.023 125.574C245.972 127.817 247.208 128.649 249.274 127.901C249.878 127.719 250.447 127.435 250.955 127.061C256.272 122.533 259.805 116.261 260.92 109.366ZM274.245 117.441C274.723 117.551 275.21 117.613 275.699 117.626C278.299 117.251 280.739 116.146 282.736 114.44C284.733 112.735 286.206 110.497 286.983 107.988C287.086 107.202 287.086 106.405 286.983 105.619C286.139 105.537 285.288 105.594 284.462 105.787C280.261 107.602 277.413 110.895 275.279 114.844C274.883 115.686 274.538 116.55 274.245 117.432V117.441ZM250.257 137.488C247.67 138.085 245.073 138.58 243.301 140.715C242.914 141.185 242.696 142.395 242.99 142.706C243.271 142.977 243.613 143.177 243.987 143.29C244.361 143.402 244.756 143.424 245.141 143.353C246.368 142.801 247.461 141.991 248.346 140.977C249.23 139.963 249.885 138.77 250.266 137.48L250.257 137.488Z" fill="white"/>
<path d="M105.708 127.431C103.868 128.682 102.641 129.674 101.28 130.413C99.8997 131.23 98.4199 131.866 96.8771 132.304C92.8861 133.278 89.1724 131.035 87.8532 127.044C87.534 126.069 87.2231 125.086 86.8282 123.86C85.2682 125.452 83.6127 126.947 81.8709 128.338C79.8086 129.882 77.5689 131.174 75.1997 132.186C71.6456 133.581 67.8226 131.749 66.075 128.212C65.6129 127.279 65.2852 126.288 64.7727 125.019L62.9662 126.397C60.706 128.136 58.6055 130.178 56.1353 131.548C52.8501 133.379 50.6067 131.976 50.1194 128.254C50.069 127.851 49.9849 127.414 49.8757 126.767L48.523 127.851C47.3861 128.876 46.191 129.836 44.9437 130.724C42.6919 132.161 40.3309 132.346 38.096 130.64C37.0805 129.764 36.3551 128.599 36.0161 127.302C35.677 126.004 35.7401 124.634 36.1971 123.372C38.9782 116.432 41.9021 109.542 44.7672 102.636C45.2546 101.46 46.0108 100.687 47.3551 101.275C48.6994 101.863 48.523 103.039 48.0693 104.132C45.5486 110.273 42.9776 116.407 40.4402 122.541C39.7176 124.297 38.6757 126.338 40.6418 127.691C42.6079 129.044 44.0783 127.111 45.263 125.91C49.9177 121.188 52.6988 115.315 55.043 109.206C55.8832 107.055 56.7907 104.938 57.7065 102.812C58.1938 101.678 58.992 100.846 60.3195 101.392C61.6471 101.939 61.5294 103.073 61.1093 104.232C58.992 110.005 56.8495 115.768 54.8162 121.566C54.3166 123.186 53.9513 124.844 53.7239 126.523C53.7157 127.055 53.7894 127.585 53.9423 128.094C54.4549 128.01 55.1438 128.094 55.4631 127.809C58.5551 124.986 61.6975 122.204 64.5794 119.18C65.4196 118.264 65.5288 116.6 66.033 115.306C68.4444 109.106 72.3261 104.291 78.779 101.947C80.8711 101.191 82.98 101.107 84.6604 102.787C86.3409 104.468 86.2736 106.501 85.5511 108.669C83.1312 115.777 78.4009 120.188 70.8642 121.373C68.4108 121.759 68.2175 122.036 68.6964 124.49C69.5366 128.691 72.427 130.245 76.0987 127.783C79.441 125.392 82.5195 122.651 85.2822 119.608C86.7778 118.054 87.7272 115.92 88.7271 113.945C91.0796 109.282 94.0876 105.266 98.8768 102.854C99.619 102.467 100.395 102.15 101.196 101.905C103.212 101.325 105.212 101.14 106.892 102.787C108.573 104.434 108.464 106.577 107.842 108.492C105.842 114.659 101.91 119.028 95.4907 120.835C95.0202 120.969 94.5413 121.087 94.0624 121.179C90.5419 121.868 90.4747 121.936 90.9116 124.154C91.6426 127.867 93.2558 129.304 96.1461 128.632C97.3078 128.388 98.41 127.917 99.3893 127.246C104.75 123.314 109.472 118.844 111.547 112.214C112.433 109.415 113.479 106.668 114.681 103.989C115.11 103.006 115.967 101.762 116.832 101.577C117.504 101.426 118.513 102.728 119.664 103.627C119.924 103.459 120.588 102.989 121.285 102.577C123.537 101.258 125.839 100.687 128.167 102.367C129.216 103.206 129.977 104.352 130.343 105.644C130.709 106.937 130.662 108.312 130.208 109.576C128.385 114.71 126.402 119.793 124.486 124.902C124.335 125.296 124.041 125.742 124.075 126.078C124.167 126.994 124.176 128.111 124.705 128.716C124.982 129.035 126.553 128.716 127.083 128.254C129.242 126.195 131.284 124.003 133.25 121.742C134.223 120.463 135.129 119.133 135.964 117.76C136.627 116.81 137.644 116.079 138.56 117.012C138.839 117.393 139.02 117.837 139.088 118.304C139.155 118.771 139.107 119.248 138.946 119.692C137.729 121.895 136.309 123.98 134.703 125.918C133.099 127.851 131.3 129.614 129.334 131.178C126.873 133.11 124.15 133.203 122.335 131.85C120.361 130.38 119.613 127.792 120.655 124.801C122.335 120.054 124.209 115.39 125.99 110.677C126.334 109.99 126.539 109.242 126.595 108.475C126.545 107.442 126.469 105.955 125.831 105.526C125.192 105.098 123.621 105.526 122.823 106.039C119.017 108.652 116.656 112.5 114.715 116.55C112.606 120.953 110.799 125.515 108.791 129.993C108.456 130.81 107.867 131.496 107.111 131.951C105.968 132.497 104.708 131.287 104.935 130.018C105.078 129.321 105.33 128.691 105.708 127.431ZM91.6174 117.23C92.1299 117.474 92.2559 117.583 92.3736 117.583C98.0198 117.373 102.918 112.845 104.456 107.013C104.825 105.627 103.868 104.804 102.675 105.383C100.405 106.39 98.2829 107.698 96.3646 109.274C94.0025 111.375 92.345 114.154 91.6174 117.23ZM82.1902 107.055C82.1902 105.022 81.1147 105.081 79.93 105.442C75.897 106.694 73.2504 109.643 71.1667 113.08C70.3937 114.357 70.1416 115.953 69.6459 117.407C71.2423 117.121 73.0067 117.13 74.4015 116.483C76.3526 115.639 78.0758 114.345 79.4298 112.706C80.7837 111.067 81.7297 109.131 82.1902 107.055Z" fill="white"/>
<path d="M177.344 104.645C181.948 105.283 185.931 105.283 189.258 102.612C193.611 99.1163 193.039 92.6802 188.309 89.5631C183.578 86.4459 175.983 86.7484 170.984 90.1092C166.438 93.1592 164.338 98.7802 165.506 104.737C165.657 105.493 165.808 106.25 165.968 106.997C166.237 108.3 165.774 109.426 164.489 109.518C164.048 109.424 163.638 109.221 163.296 108.927C162.954 108.634 162.691 108.259 162.531 107.838C159.809 98.1752 162.985 88.4204 173.362 84.8663C178.84 82.9842 184.284 83.1859 189.418 85.9502C193.703 88.2775 196.14 91.9241 195.862 96.8729C195.585 102.032 192.821 105.603 187.998 107.518C186.981 107.881 186.028 108.403 185.175 109.064C185.966 109.482 186.717 109.971 187.418 110.526C192.258 115.097 193.3 121.273 190.3 127.188C188.926 129.811 186.734 131.916 184.057 133.182C181.379 134.448 178.362 134.806 175.462 134.203C172.282 133.542 169.404 131.864 167.262 129.423C166.06 128.146 165.178 128.146 164.035 129.473C163.234 130.353 162.319 131.122 161.313 131.758C156.801 134.766 152.549 133.859 149.617 129.33C147.004 125.289 148.836 120.878 153.558 119.836C156.74 119.19 160.049 119.792 162.8 121.516C164.388 122.432 165.321 122.247 166.052 120.592C168.522 115.114 170.908 109.594 173.614 104.216C175.385 100.749 177.349 97.3828 179.495 94.1338C180.083 93.218 181.293 92.6382 182.301 92.0501C183.31 91.4619 184.528 91.546 185.116 92.8231C185.704 94.1002 184.948 94.7472 183.931 95.3437C180.444 97.3938 179.369 101.066 177.344 104.645ZM177.479 130.843C181.94 130.843 185.595 128.591 187.082 125.356C188.763 121.659 188.763 118.055 186.2 114.677C184.041 111.812 180.965 110.367 177.798 109.048C176.269 108.417 175.613 108.879 174.958 110.35C172.95 114.795 170.757 119.147 168.656 123.566C168.506 123.857 168.421 124.176 168.406 124.502C168.392 124.829 168.448 125.155 168.572 125.457C171.101 128.44 174.067 130.809 177.487 130.843H177.479ZM156.171 122.987C153.793 123.281 152.247 124.188 152.155 125.6C152.003 127.944 155.431 130.574 157.591 129.574C159.054 128.795 160.41 127.829 161.624 126.7C162.464 125.978 162.254 125.18 161.22 124.785C159.59 124.146 157.86 123.583 156.179 122.987H156.171Z" fill="white"/>
<path d="M161.472 24.1357H132.519C129.334 24.1357 128.83 23.5559 129.158 20.4051C129.605 16.2573 131.567 12.4204 134.668 9.62956C137.769 6.83876 141.79 5.29045 145.962 5.28135C147.683 5.33615 149.368 4.77949 150.718 3.71016C157.439 -1.43193 166.362 -1.15466 173.067 4.07985C174.034 4.78572 175.198 5.17068 176.395 5.18053C180.853 5.0776 185.176 6.71176 188.451 9.73773C191.726 12.7637 193.697 16.9444 193.947 21.3966C194.056 23.5307 193.426 24.1525 191.039 24.1525C181.187 24.1469 171.331 24.1413 161.472 24.1357ZM145.651 9.22194C145.399 9.11365 145.133 9.03744 144.862 8.99508C140.047 8.91946 133.939 14.0952 133.149 18.8171C132.939 20.1111 133.552 20.4387 134.645 20.4387C137.358 20.4387 140.081 20.3883 142.795 20.4387C144.668 20.4976 145.114 19.7666 144.618 18.0189C144.331 17.0118 144.257 15.956 144.399 14.9186C144.677 13.0533 145.206 11.1796 145.651 9.22194ZM178.025 9.03709C178.125 12.6248 178.167 15.9856 178.369 19.3297C178.369 19.7246 179.293 20.3631 179.806 20.3799C182.671 20.4808 185.545 20.4387 188.41 20.4387C189.88 20.4387 190.149 19.7582 189.746 18.397C189.022 15.8156 187.491 13.5337 185.376 11.8854C183.116 10.121 180.596 8.86905 178.025 9.03709ZM169.152 6.51646C166.799 2.86995 155.877 2.93716 153.911 6.51646L161.531 13.8599L169.152 6.51646ZM168.833 20.4556V20.3883C170.081 20.4787 171.336 20.4562 172.58 20.3211C172.958 20.2304 173.311 20.0577 173.614 19.8152C173.918 19.5727 174.164 19.2664 174.336 18.918C175.187 16.3754 174.997 13.5991 173.807 11.1964C173.168 9.78488 172.311 9.58323 170.975 10.289C168.154 11.7375 165.915 14.1101 164.632 17.0107C163.296 19.9766 163.649 20.4472 166.951 20.464L168.833 20.4556ZM154.062 20.4556C155.322 20.4556 156.582 20.4556 157.834 20.4556C159.086 20.4556 159.574 19.733 159.011 18.6659C157.977 16.7082 157.078 14.5489 155.566 13.0113C154.205 11.6249 151.718 9.80168 150.415 10.2386C148.315 10.9444 148.248 13.8515 148.264 16.1201C148.264 19.9262 148.861 20.4808 152.591 20.4808L154.062 20.4556Z" fill="white"/>
<path d="M45.3218 146.252C40.0369 146.378 34.399 144.009 29.467 139.866C26.896 137.707 24.3333 135.531 21.8631 133.262C20.5272 132.036 19.4853 131.859 17.8637 132.951C14.9986 134.892 11.8394 136.245 8.22649 135.892C4.93286 135.573 2.2862 134.212 0.992273 131.011C0.454612 129.854 0.283171 128.56 0.500905 127.304C0.718638 126.047 1.31515 124.886 2.21058 123.978C3.25728 122.771 4.65928 121.927 6.2155 121.566C7.77173 121.205 9.40223 121.347 10.8731 121.97C13.4994 123.1 16.0285 124.443 18.435 125.986C19.4349 126.574 20.0398 126.725 20.9557 125.776C27.3161 119.054 31.7776 111.383 33.5588 102.25C33.8672 100.742 33.9773 99.1995 33.8865 97.6626C33.374 90.294 27.2068 86.513 20.2835 89.2605C15.622 91.1692 11.7633 94.6301 9.36077 99.0574C7.18978 102.877 5.44297 106.923 4.15146 111.123C3.47089 113.307 4.26909 115.929 4.21028 118.349C4.21028 119.189 3.58012 119.953 3.23564 120.76C2.44584 120.365 1.29475 120.172 0.950263 119.533C0.397494 118.403 0.0883409 117.169 0.042836 115.912C-0.721756 105.09 8.87345 89.8066 18.8804 85.8325C27.6269 82.354 37.8271 87.2692 37.5918 98.4356C37.3642 104.969 35.3914 111.323 31.8784 116.836C29.4722 120.598 26.8462 124.214 24.014 127.667C23.0562 128.885 22.9302 129.532 24.1905 130.54C27.2909 133.061 30.1644 135.85 33.374 138.211C41.6249 144.269 50.3882 143.589 59.2357 139.656C61.0757 138.816 62.7813 137.707 64.5542 136.724C65.6129 136.136 66.7219 135.371 67.6546 136.8C68.5872 138.228 67.6546 139.085 66.6127 139.766C60.5212 143.656 53.9675 146.294 45.3218 146.252ZM16.5782 129.381C13.8223 127.104 11.2344 125.423 8.00803 125.121C7.12634 125.076 6.25702 125.343 5.55205 125.874C4.84709 126.406 4.35134 127.168 4.15146 128.028C4.06545 128.868 4.28477 129.71 4.76926 130.401C5.25376 131.093 5.97102 131.586 6.78973 131.792C10.3522 132.893 13.3014 131.506 16.5782 129.381Z" fill="white"/>
<path d="M161.641 48.4088C152.751 48.4088 143.853 48.4088 134.964 48.4088C133.443 48.451 131.956 47.9549 130.764 47.0081C129.573 46.0613 128.754 44.7244 128.452 43.2331C128.185 41.8026 128.426 40.3237 129.133 39.0519C129.84 37.7801 130.969 36.7953 132.326 36.2677C133.232 35.9101 134.2 35.7387 135.174 35.7636C152.746 35.7636 170.32 35.7636 187.897 35.7636C192.006 35.7636 194.619 38.3599 194.694 42.166C194.778 45.5857 191.132 48.4928 187.897 48.4172C179.151 48.2239 170.396 48.35 161.641 48.35V48.4088ZM161.565 44.5438C169.889 44.5438 178.212 44.5438 186.536 44.5438C189.628 44.5438 190.863 43.7876 190.804 42.0232C190.745 40.2587 189.536 39.5025 186.469 39.5025H136.317C135.619 39.5025 134.737 39.3261 134.267 39.679C133.468 40.2755 132.426 41.2334 132.435 42.0316C132.443 42.8298 133.519 43.712 134.334 44.317C134.813 44.653 135.686 44.4598 136.384 44.4598L161.565 44.5438Z" fill="white"/>
<path d="M161.741 51.9464H189.67C192.837 51.9464 193.661 53.0975 192.703 56.1474C191.666 59.3836 189.659 62.2223 186.953 64.2785C184.247 66.3347 180.975 67.5088 177.579 67.6415C166.32 67.9328 155.056 67.9132 143.786 67.5827C137.064 67.3979 131.62 62.1549 130.149 55.5257C129.57 52.9042 130.368 51.938 133.174 51.938L161.741 51.9464ZM188.628 56.0886C187.813 55.9492 186.991 55.8539 186.166 55.803C169.726 55.803 153.286 55.803 136.846 55.803C136.118 55.8847 135.403 56.0482 134.712 56.2903C134.875 57.0133 135.12 57.7152 135.443 58.3824C137.963 62.4574 141.996 63.9614 146.533 64.0202C156.12 64.1378 165.707 64.079 175.285 64.0202C176.756 64.0057 178.218 63.788 179.629 63.3733C183.486 62.2642 186.721 60.2561 188.628 56.0886Z" fill="white"/>
<path d="M161.817 28.1519H189.325C190.169 28.0582 191.023 28.118 191.846 28.3283C192.443 28.5636 193.232 29.3618 193.199 29.8575C193.123 30.2353 192.968 30.5926 192.744 30.9056C192.519 31.2186 192.23 31.48 191.896 31.6723C191.17 31.9196 190.396 31.9944 189.636 31.8908H133.149H132.519C131.183 31.8908 129.83 31.7059 129.872 29.9583C129.872 28.3367 131.208 28.1939 132.451 28.1939H157.859L161.817 28.1519Z" fill="white"/>
<path d="M319.609 132.892C319.175 132.881 318.748 132.784 318.352 132.607C317.955 132.431 317.598 132.178 317.299 131.863C316.697 131.227 316.371 130.378 316.395 129.502C316.418 128.626 316.788 127.796 317.424 127.193C318.06 126.59 318.909 126.265 319.785 126.288C320.661 126.312 321.491 126.682 322.094 127.318C322.697 127.954 323.022 128.803 322.999 129.679C322.975 130.554 322.605 131.385 321.969 131.988C321.333 132.59 320.484 132.916 319.609 132.892Z" fill="white"/>
<circle cx="161" cy="155.249" r="3" fill="white"/>
</svg>
