<svg width="30" height="30" viewBox="0 0 30 30" fill="none" xmlns="http://www.w3.org/2000/svg">
<path d="M22.963 26.243V11.991L24.601 11.045C25.1009 10.7572 25.5159 10.3426 25.8042 9.84309C26.0925 9.34355 26.2439 8.77677 26.243 8.2V6.56C26.243 5.69009 25.8974 4.85581 25.2823 4.24069C24.6672 3.62557 23.8329 3.28 22.963 3.28H6.563C5.69309 3.28 4.85881 3.62557 4.24369 4.24069C3.62857 4.85581 3.283 5.69009 3.283 6.56V8.2C3.2827 8.7764 3.43421 9.34271 3.72228 9.84197C4.01035 10.3412 4.42482 10.7558 4.924 11.044L6.563 11.989V26.243H22.963ZM26.243 26.243C26.243 27.1129 25.8974 27.9472 25.2823 28.5623C24.6672 29.1774 23.8329 29.523 22.963 29.523H6.563C5.69309 29.523 4.85881 29.1774 4.24369 28.5623C3.62857 27.9472 3.283 27.1129 3.283 26.243V13.884C2.28457 13.3086 1.45541 12.4803 0.879051 11.4824C0.302694 10.4845 -0.000504701 9.35236 6.30633e-07 8.2V6.56C0.000265821 4.82009 0.691629 3.15153 1.92203 1.92132C3.15242 0.691109 4.82109 -2.02096e-08 6.561 0H22.961C24.7011 0 26.3699 0.691246 27.6003 1.92167C28.8308 3.1521 29.522 4.82091 29.522 6.561V8.2C29.5226 9.3519 29.2198 10.4836 28.644 11.4813C28.0682 12.479 27.2397 13.3073 26.242 13.883L26.243 26.243Z" fill="black"/>
</svg>
