<svg width="25" height="36" viewBox="0 0 25 36" fill="none" xmlns="http://www.w3.org/2000/svg">
<path d="M13.351 7.556L13.651 10.075H21.24L20.61 15.112H11.693L11.108 10.075H11.115L10.815 7.556V7.526L10.103 1.408L9.935 0H0V2.519H7.693L8.278 7.556H1.087L4.275 33.056C4.35211 33.6649 4.6485 34.2247 5.10869 34.6308C5.56887 35.0369 6.16128 35.2613 6.775 35.262H18.407C19.0207 35.2613 19.6131 35.0369 20.0733 34.6308C20.5335 34.2247 20.8299 33.6649 20.907 33.056L24.094 7.556H13.351ZM3.945 10.075H8.572L9.157 15.112H4.574L3.945 10.075ZM18.408 32.741H6.778L4.887 17.63H9.448L10.548 27.075H13.087L11.987 17.63H20.298L18.408 32.741Z" fill="black"/>
</svg>
