<svg xmlns="http://www.w3.org/2000/svg" width="32.911" height="28.53" viewBox="0 0 32.911 28.53">
  <g id="fast-food-outline" transform="translate(-1.125 -12.375)">
    <path id="Trazado_34" data-name="Trazado 34" d="M27.75,29.25c0,3.226-1.884,5.84-5.111,5.84H10.595c-3.226,0-5.111-2.614-5.111-5.84" transform="translate(0.963 4.69)" fill="none" stroke="#000" stroke-linecap="round" stroke-miterlimit="10" stroke-width="2.25"/>
    <path id="Trazado_35" data-name="Trazado 35" d="M29.99,23.625c1.612,0,2.92,1.634,2.92,3.651h0c0,2.015-1.308,3.651-2.92,3.651H5.17c-1.612,0-2.92-1.634-2.92-3.651h0c0-2.015,1.308-3.651,2.92-3.651" transform="translate(0 3.015)" fill="none" stroke="#000" stroke-linecap="round" stroke-miterlimit="10" stroke-width="2.25"/>
    <path id="Trazado_36" data-name="Trazado 36" d="M30.72,24.63H15.692a.731.731,0,0,0-.515.214l-2.448,2.448a.365.365,0,0,1-.517,0L9.765,24.844a.731.731,0,0,0-.515-.214H4.441A2.191,2.191,0,0,1,2.25,22.44h0a2.191,2.191,0,0,1,2.191-2.191H30.72a2.191,2.191,0,0,1,2.191,2.191h0A2.191,2.191,0,0,1,30.72,24.63Z" transform="translate(0 2.01)" fill="none" stroke="#000" stroke-linecap="round" stroke-miterlimit="10" stroke-width="2.25"/>
    <path id="Trazado_37" data-name="Trazado 37" d="M4.5,21.165v-.019c0-5.018,4.106-7.645,9.125-7.645H20.2c5.018,0,9.125,2.646,9.125,7.665v-.019" transform="translate(0.67 0)" fill="none" stroke="#000" stroke-linecap="round" stroke-miterlimit="10" stroke-width="2.25"/>
  </g>
</svg>
