<svg width="32" height="32" viewBox="0 0 32 32" fill="none" xmlns="http://www.w3.org/2000/svg">
<path d="M10.591 14.625L1.591 5.625L0 7.216L7.409 14.625H0V15.75C0 19.9272 1.65937 23.9332 4.61307 26.8869C7.56677 29.8406 11.5728 31.5 15.75 31.5C19.9272 31.5 23.9332 29.8406 26.8869 26.8869C29.8406 23.9332 31.5 19.9272 31.5 15.75V14.625H10.591ZM15.75 29.25C12.3654 29.2459 9.10552 27.9723 6.61446 25.681C4.12339 23.3898 2.58241 20.2474 2.296 16.875H29.205C28.9186 20.2476 27.3774 23.3901 24.8862 25.6814C22.3949 27.9727 19.1347 29.2461 15.75 29.25Z" fill="black"/>
<path d="M22.5 6.75C21.8998 6.75094 21.3036 6.84783 20.734 7.037C19.8973 5.90478 18.8074 4.98396 17.5513 4.34811C16.2952 3.71226 14.9078 3.37902 13.5 3.375C11.5006 3.36924 9.55714 4.03479 7.981 5.265L2.716 0L1.125 1.591L7.931 8.397L8.731 7.597C9.40262 6.92466 10.2088 6.4019 11.0966 6.06301C11.9845 5.72412 12.9339 5.57675 13.8827 5.63057C14.8315 5.6844 15.7582 5.93819 16.602 6.37532C17.4459 6.81244 18.1877 7.42302 18.779 8.167C18.5388 8.37667 18.3167 8.60614 18.115 8.853C17.7992 9.24911 17.3981 9.56879 16.9414 9.78817C16.4848 10.0076 15.9846 10.121 15.478 10.12H11.25V12.37H15.473C16.3167 12.372 17.1499 12.1834 17.9104 11.8182C18.6709 11.453 19.3391 10.9207 19.865 10.261C20.302 9.71502 20.8977 9.31827 21.57 9.12556C22.2422 8.93286 22.9577 8.95372 23.6175 9.18527C24.2774 9.41683 24.849 9.84763 25.2534 10.4181C25.6578 10.9887 25.875 11.6707 25.875 12.37H28.125C28.1218 10.8796 27.528 9.45121 26.4737 8.3978C25.4193 7.34439 23.9904 6.75185 22.5 6.75Z" fill="black"/>
</svg>
